<?xml version="1.0" encoding="UTF-8"?>
<svg id="Layer_2" xmlns="http://www.w3.org/2000/svg" version="1.1" viewBox="0 0 531.3 554.4">
  <!-- Generator: Adobe Illustrator 29.3.1, SVG Export Plug-In . SVG Version: 2.1.0 Build 151)  -->
  <defs>
    <style>
      .st0 {
        fill: #fc0;
      }
    </style>
  </defs>
  <g id="Layer_1-2">
    <path class="st0" d="M531.3,363.5c-11.8,4.3-22.9,11.4-34.2,17.1-12,6.1-30.9,13.2-41.3,20.1-9.4,6.2-12.4,14.3-14.4,24.9-4.4,22.6-5.4,49.5-11.1,71.4-.4,1.5-.6,3-1.6,4.2l-85.1-12.9c-4.8-.6-10-.1-13.8,3.2l-63.9,62.8c-22.6-19.4-42.9-41.5-64.1-62.3-2-1.4-5.8-3-8.1-3.4-10.2-1.8-42.9,6.1-55.4,8s-25.1,3.9-37.7,4.9l-14-88.2c-2-5.9-5.3-8.6-10.4-11.7-19-11.6-43.7-21.5-63.8-32.1-2.1-1.1-12.2-6.1-12.4-7.5l39.9-77.9c2.1-5.4,2.2-9,.3-14.5L1.2,190.8l76.3-38.8c9.7-4,10.5-13.2,12.2-22.4,4.8-25.4,6.6-51.5,11.9-76.9,2-.3,4-.2,6,0,24.9,2.5,52.3,10.9,77,13.2,8.5.8,12.9.2,19.6-5.2L263.1.8l2.7-.8,64,62.8c3.5,3.1,7.5,3.5,11.9,3.2,24.4-1.4,53.2-10.9,78-13.2,2.5-.2,7.8-.7,9.6.7,1.6,1.8,1.5,4.4,2,6.6,4.9,23.4,6.5,48.8,11.1,72.3,1.1,5.4,1.7,10.4,5.5,14.7l83.1,42.7-.3,3.6-39.8,77.3c-1.7,5.8-.9,10,1.3,15.4,5.4,13,14.9,28,21.5,40.9,6.1,12,12.2,24.1,17.7,36.5h0ZM264.7,38.4l3.3.8,36.9,36-30.3,27.3c1.4,4.2,4.2,9.6,9.4,8.5,6-1.3,29.1-30,36.2-34.8,1.9-2.7,1-6.4-1-8.7l-51.1-50.6c-4-2.1-7.9,1.6-10.8,4.1-16.1,13.1-30.5,32.8-46.5,46.6-1.9,2.1-2.4,4.8-1.7,7.5l33.9,34.3c6.7,5.5,15.1-1.5,10.9-9l-24.4-21.7-1.3-3.2,36.5-37h0ZM258.5,56.2c-4.8,4-15.9,12.1-13.9,18.8.3,1.1,14.6,15.5,16.2,16.5,2.4,1.5,4.1,1.9,6.9,1.3,2.5-.6,18.8-16.6,19.5-19,.2-.8.5-1.4.2-2.2-.3-1.3-17.8-18.8-19.1-19.4-5.8-2.7-7.1,1.6-9.9,4h0ZM191.4,77.9c-1.4-1.5-6.9-2.4-9.1-2.8-17.9-3.4-47.6-9.2-65-9.9-6-.2-7.5,2-8.8,7.5-3.9,16.2-9.2,49.7-9.9,66-.2,5.6,1.4,7.4,6.5,8.8,9.4,2.6,29.2,5.5,39.1,6,2.5.1,5.8.4,8.2-.4,3.3-1.1,5.3-6.6,3.6-9.4-3.7-6.2-29.9-6.1-37.5-8.6-3.1-1-4.3-2.4-4.2-5.8,0-6.5,5.2-37.2,7.2-43.5.8-2.7,1.4-3.7,4.6-4.1l49.4,7.1c1.1.7.9,1.7.9,2.8-.4,9.4-4.7,21.3-5.6,31-.4,4.7-.8,9.7,4.6,11.5,8.1,2.6,9-4.1,10.3-9.9,2.2-9.6,6.7-32,6.9-41.1,0-1.6,0-3.6-1.1-4.9h0ZM419.8,67.3c-1.6-1.7-7.3-1.2-9.7-1.1-17.9,1.4-45.5,5.9-63.2,9.7-8,1.7-8.1,2.3-7.3,10.7.9,9.9,4.5,29.2,7,39,2.1,8.4,7.9,11.2,13,3.3l-5.7-40.8,54.1-6.8c1,.2,2,4.4,2.3,5.6,2.6,9.8,6.1,30,6.9,40.1.2,2,.7,5.4-.3,7.1-1.9,3.2-31.9,5.1-37.9,7.1-8.4,2.8-2.9,15.4,6.3,12l43.2-7.6c2.8-2.2,4-4.5,3.3-8.2-3.2-9.4-8-66.5-11.7-70.3h0ZM228.1,157.7v-19.2c0-1.2,1.9-6.5,2.7-7.9,2.6-4.8,8.3-5.2,5.2-12.5-.6-1.5-17.2-18.5-19.8-21-4.2-4.1-9.1-8-13.6-11.8l-7.3,44.6c-.2,9,9.4,6.6,15.4,10.6s9,13.6,15.4,18.2l1.9-1h0ZM302.9,136.6c1,6.3-.8,15,0,21.6,1.3,0,1.8.3,2.9-.6,2.1-1.8,6.1-8.6,8.6-11.3,1.7-1.8,4.3-4.9,6.2-6.3,5.5-4,13.8-3.7,14-12,.1-4.5-4.6-35.3-6.1-39.1-.7-1.6-1.9-3.1-3.9-2.5l-31.2,33.2c-2,6.7,8.1,9.3,9.4,17.1h0ZM134.8,93.2c-2.4.6-4.5,3.1-5.3,5.3-1.3,3.8-3,16.8-3.1,21,0,2.6,1.7,5.2,3.8,6.6s20.3,4.4,23.5,4.4c4.7,0,6-3.5,6.9-7.5.9-3.6,3-16.7,3.1-20,0-2.1-1-4.5-2.9-5.6s-24-4.7-26.1-4.2h0ZM400.5,124.3c5.4-4.5-.6-24.3-1.6-31-6,1.5-26.9,1.8-29.8,6.7-2.4,4,1.1,25.9,5.3,28.4,3.1,1.9,23.2-1.7,26.2-4.2h0ZM265,112.2c-19,13.5,7.4,23.3,7.3,9.1,0-3.6-5.2-6.4-7.3-9.1ZM263.7,211.8l2.8-.3c12.1-14.5,23.4-27,25-47,.9-11,2.4-29.6-10.1-34.1l-15.3,17.3c-1.5,0-15.2-15.6-18.3-16.3-.8-.2-2.8-.3-3.2,0-.5.4-4.5,11.9-4.7,13.1-.7,4.4-1.3,15.2-1.2,20,.2,19.6,15,32.3,25.1,47.3h0ZM360.5,142.9c-10.1,0-14.6,16.7-1.4,14.4,7.6-1.4,2.8-10.1,1.4-14.4ZM170.2,144c-5.6,1.7-5.7,17.4,5.4,14,1.1-.3,5.1-4.3,5.3-5.3,1.6-5.9-5.1-10.4-10.7-8.7h0ZM228.1,224.4v-40.8c-11.2-16.4-35.7-62.4-39.3-12.9-10.6.8-29.6-8.6-24.5,10.6.9,3.3,11.1,17.6,13.9,20.6,12.7,13.6,32.1,19.5,49.9,22.5h0ZM302.9,183.6v40.8l41.2-13c5.7-9,14.8-18,19.6-27.4,10.1-19.6-9.4-14.1-21.4-12.5-3.4-8.4-1.4-28.8-15.7-19.9-3.3,2-23.1,28.7-23.7,32h0ZM165.7,205.2c1.2-1.1-12.2-21.4-13-23.9-2.2-7.1,4.6-13.3-8.1-16.9-8.8-2.5-29.1-5.4-38.4-5.8-3.6-.2-4.8,0-3.1,4.1l20.6,38.4c4.9,3.1,8.7-1.6,12.9-2.4,9.1-1.7,20.1,4.8,29,6.5h0ZM427.6,159.2l-49.9,7.7c2.4,7.3,2.8,13-.6,20-1.1,2.4-12,16.3-10.9,17.4,12.7-3.4,27.9-11.5,38.9,0l22.5-45.1h0ZM432.5,232.1l-4.7,10.1,50.1,25.3,37.1-71.4-72.3-36.9-25.5,50.7,11.3,3.8,19.9-37.2,50.2,25.3-26.4,49.4-39.7-19.1ZM90.6,161.4c-3.7-3-9.8,0-13.5,1.8-13.5,6.1-46.2,21.4-57.1,29.3-2.8,2-5.3,4.1-3.2,7.8,10.1,18.1,18.4,38,28.5,55.9,1.5,2.6,5.5,10.7,7.9,11.4l3.2-.3c12.3-7.8,29.9-12.9,41.6-20.9,7.9-5.4,3.9-14.2-3.6-13.2-7,.9-20.8,11.9-28.4,13.9-2.2.6-6.8,1.1-8.7,0-4.2-2.5-19.3-38.9-23-45.5l48.3-24.1,17.8,34.2c4.9,6,15.1,0,12-7.2l-21.9-42.9h0ZM452.9,191.9l-14.5,29.1,29,14.4,14.5-29.1-29-14.4ZM73.4,193.9c-2.4.3-20.5,9.3-21.8,10.9-4.5,5.5,9.5,29.6,14.9,29.9,1.3,0,21-10.7,22.9-12.2,1-.8,1.3-.9,1.6-2.3.6-3.2-7-18.5-9.2-21.5-2.1-2.8-4.7-5.2-8.3-4.7h0ZM243.3,202.6c-.8-.5-1.8-.1-2.7-.2.2,8.2-4.8,30.9,9.9,27.6,4.8-1.1,5.3-5.4,4.3-9.7-.3-1.5-10.6-17.2-11.5-17.7ZM290.5,203.3c-4.1-.1-12.7,12-13.9,15.4-2.4,7.2,2.8,15.4,10.4,10.4.8-.5,3.5-4.7,3.5-5.2v-20.6ZM139.6,210.2c-13.6,1.3-1.4,20,1.1,26.1-4.8,6.4-26.1,7.5-18,18.2,3.8,5.1,24.9,11.6,31.7,13.4,8.8,2.3,10.6,1.9,19.2-.5,3.4-1,30.4-9.1,30.5-10.8l-24.6-33.9c-7.4-2.8-15-5.8-22.6-8.1-3.7-1.1-14.2-4.6-17.3-4.3h0ZM411.3,248.4l-21.7-11.5,9.1-21.5c-3-3.4-7.4-4.8-11.8-4.4-4,.3-32.7,10.2-35.5,12.5-4.2,3.5-15.8,20.2-19.5,25.6-1.1,1.7-4.3,5.7-4,7.5,19.3,10.5,39.3,14.7,60.7,7.9,10-3.2,16.5-7.5,22.8-16h0ZM119.2,219.6c-4.1,3.7-10.7,4.4-8.4,11.2,1.4,4.2,4.4,6.4,8.8,4.6,6.6-2.8,3.1-11.8-.5-15.8ZM411,221.6l-5.1,9.1,9.9,6.1,6.1-10-10.8-5.2h0ZM202.8,230.3c-2,.6-1.5,2.1-.8,3.5,1.2,2.6,10.8,14.1,13.2,15.6,8.4,5.5,17.6-4.7,8.1-11.9-2.3-1.8-18.1-7.8-20.4-7.2h0ZM328.8,230.2c-1-1-19.9,5.7-22,7.2-3.2,2.5-4.5,10.5,0,12.4,10.9,4.6,15.4-10.1,21.5-15.8l.5-3.8h0ZM291.1,276.8c0-14.2-11.5-25.8-25.8-25.8s-25.8,11.5-25.8,25.8,11.5,25.8,25.8,25.8,25.8-11.5,25.8-25.8ZM419.3,295.2c.9,1,5,2.5,6.5,1.8l40.3-20.2-45-22.5c-2.5,15.7-17.7,16.5-28.8,23.5,6.2,4.4,16.2,3.8,22,8.7,3.4,2.9,3.5,7.1,5.1,8.8h0ZM105.1,255.3l-41,21.4,42.2,22.1c5.3,1.3,7.7-9.2,12-13,1.6-1.5,4.5-3.1,6.5-4,2.4-1.1,13.8-3.5,13.1-6-8.3-5.6-17.7-4.3-24.4-13-2.5-3.2-2.4-8.5-8.4-7.5h0ZM187.8,278.1c6.2.7,19.1,8.7,24.4,5.7,3.8-2.2,4.7-8.4,2.6-11.9-3.8-6.3-21,1.3-26.5,3.4l-.4,2.9h0ZM343.2,275.4c-7.2-1.4-21.6-10.3-27.4-3-2.3,2.9-1.8,6.5.5,9.2,6.1,6.9,19.3-2.3,26.8-3.5v-2.7h0ZM159.8,284.2c-5.4.7-25.5,7.4-30.2,10.1-3.7,2.1-6.6,6.5-9.9,9.3l21,13.6-9.4,21c3.1,2.7,7.4,4.5,11.6,4.1,4.6-.5,16.8-3.9,21.4-5.5,19.6-7,27.7-23.6,39.8-38.9l-1.6-2.2c-12.8-2.5-29.9-13.2-42.7-11.5h0ZM363.1,284.1c-3.8.3-18.9,5.8-23.3,7.5-8.9,3.4-14,3-8.3,13.1,12,21.4,25,30.1,48.4,35.1,7,1.5,13.8,6.7,18.5-3.2l-9.1-19.5c7.1-6.3,30.9-10.3,14-20.9-8.3-5.3-30.7-12.9-40.2-12.1h0ZM417.2,343.5l25.5,50.7,72.3-37-37-71.3-48.2,24.5c.1,4.9,1.7,10.7,7.8,8.7l35.3-16.7,24.9,50.4-49.3,24-20.7-37.9-10.5,4.5h0ZM113.9,343.4c-3.7-.2-8.6-6-12-2.9l-19.3,36.4-48.5-24.3-.5-2.5,24.6-46.6,37.9,17.8c2.4,0,5.4-8,7-10.1,0-.7-4.5-3.2-5.6-3.8-7.7-4.4-31.5-17.7-38.7-19.9-7.2-2.2-7.5-.6-10.8,5-11,18.7-19.4,40.8-30.4,59.8-2.1,4.5-.1,6.2,3.4,8.6,12,8.1,46.8,24.8,60.8,30.4,1.7.6,4.8,2.4,6.4,2l25.6-49.8h0ZM328.8,323.3c1.4-1.3-8.1-14-9.6-15.8-1.6-1.9-5.1-5.7-7.4-6.1-7.5-1.4-11.1,10-5.5,14.3,1.9,1.5,21.6,8.5,22.6,7.7h0ZM225.9,314.4c3.8-4.5-2.1-14.6-9.9-11.3-3.4,1.4-12.9,15.7-13.8,20.2,1.2,1.1,22.1-7,23.7-8.9ZM91.8,332l-28.1-13.4c-1.4.3-12.6,23.3-12.8,25.5-.2,2.5.9,4,2.8,5.4,2.6,1.9,18.6,9.9,21.8,10.9.9.3,1.8.7,2.8.4l13.4-28.6h0ZM126.4,320.4c-16.8-5.6-19.4,3.2-8.2,14.4l8.2-14.4ZM467.6,317.8l-29.2,14.6,14.6,29.1,29.2-14.6-14.6-29.1ZM411,319.6c-5.2,1.6-4.5,11.9,2.5,11.1,1.1-.1,9.3-2.5,9.3-3.2-3-4.6-5-10-11.8-8h0ZM240.6,350.1c1.5.2,2.2,0,3.4-.9.7-.6,10.3-14.5,10.5-15.4,1.2-4.1,1.1-8.4-3.2-10.3-14.8-6.7-11,18.9-10.8,26.6h0ZM290.5,350.1v-19.7c0-.4-2.7-4.6-3.3-5.3-6.7-7.2-13.9,1.6-9.3,11.2,1,2.2,10.2,16.3,12.6,13.7h0ZM228.1,329c-3.9.2-7.6,1.5-11.3,2.6-6,1.8-23.9,6.6-28,9.4-5.1,3.5-21.4,26.3-24.2,32.4-6.7,14.8,16.3,9.6,24.1,8.3,2.8,9.9,1.7,33.5,17.3,18.7,2.8-2.7,22.1-29.5,22.1-31.7v-39.8h0ZM302.9,329v39.8c0,2,18.8,28.2,21.6,31.2,13.7,14.8,15.9-8,16.8-18.2,3-3,35.6,12.1,23.4-11.5-1.9-3.6-18.9-26.5-21.6-28.3-3.6-2.4-16.9-6.3-21.8-7.9-2.4-.8-17.7-5.8-18.4-5.1h0ZM247.3,424c1.3.3,1.6-.2,2.4-.9,3.1-2.8,12.3-17.3,14.8-17.8,4.4-1,13,15.3,16.9,17.6,2.1-1.6,4.6-2.9,6.2-5.1,5.8-7.8,1.9-31.6,2.4-41.8l-24-34.5-17.6,20.8c-10.9,19.2-14.5,42.7-1.1,61.7h0ZM164.8,349.2c-12.4,3.1-28.2,11.7-38.8,0l-23.5,45.1c8.5-2.3,42.2-3.3,47.5-7.6,3.8-3,1.1-8.4,1.4-13,.7-10.5,10.6-15,13.5-24.4h0ZM367.2,350.1c-1.3,1.3,7.8,12.2,9,14.5,5.3,9.5,4.7,10.3,2.2,20.3-.2,1-1.2,1.1.2,2.2l49.9,6.7-23-44.6c-12.1,10.8-24.9,3.9-38.4,1h0ZM350.9,394.3c.2,6.1-2.3,14,6.3,14.4,5.6.2,8.1-6.6,4.7-10.5-1.9-2.2-8.1-2.7-11-3.9h0ZM227.1,395.2c-1.6-.3-1.9.5-2.9,1.5-4.5,4.6-7.9,14-13.9,17.8-5.3,3.4-13.6.8-14.8,8.1,3,13,3.8,26.5,6.6,39.4.3,1.3-.8,2.8,1.4,2.4l33.1-34.1c-2.5-1.5-5-3.4-6.6-5.9-1.1-1.9-3-7.6-3-9.4v-19.7h0ZM179.1,396.2c-5.1-.5-11.7-.5-11.5,6.1.3,9.1,6.2,6.2,12.4,4.2l-.9-10.4h0ZM305.8,397.1c-1.5,12-2.9,23.2-10.3,33.1l31.9,35,7-46.4c-1-3.1-7.3-2.4-10.2-3.2-9.2-2.6-11.7-12.8-18.4-18.5h0ZM154.2,399.1l-50.2,7.7c-5.6,1.4-4.6,7.2-4.3,11.8,1.4,16.6,5.7,37.9,8.7,54.7,1.3,7.7.3,14.4,9.9,14,16-.6,45.7-6.5,62.1-9.9,7.3-1.5,10.8-.8,10.4-9.8s-4.6-33.3-7-42c-.7-2.7-1.8-5.5-5-5.4-2.6,0-7.8,1.9-7.3,5.1l5.8,39.8-56.2,7.7-8.1-54.7,42.2-7.2.8-1-1.9-11h0ZM419.7,487.1c.9-.8,1.8-3.8,2.1-5.1,3.8-16.3,8.3-46.6,9.6-63.4.7-8.9,1.7-10.7-7.3-12.6-10-2.1-30.3-5.5-40.1-6-10.9-.5-12.4,9.2-5.3,12l39.4,6.2-10,51.9c-2.9,3.5-13.6,1.3-18.2.7-12-1.5-24-4.9-36.1-5.6l5.7-39.8c-.7-6.2-6.7-4.3-11.3-4.2l-8.8,48.4c-.1,6.2,3.4,6.7,8.5,7.8,21.7,4.8,44.4,5.9,66.1,10.7,1.8.2,4.5.1,5.8-1.1h0ZM369.4,454.5c2.4,2.4,26.1,5.9,29,4,2.1-1.5,3.9-11.9,4.3-14.9.7-5.9,2.2-11.6-3.8-15.1-3.4-2-19.8-5.3-22.9-3.9-5.6,2.6-9.8,26.7-6.5,30h0ZM146.4,425.3c-4.4.3-13.4,1.4-17.5,2.6-1,.3-1.9.2-2.3,1.5,1.9,6.1,2,26.6,8.5,28.8,3.8,1.3,20.8-1.4,25.4-2.5,1.1-.3,1.9-.1,2.3-1.5.9-2.5-3.1-23.8-4.8-26.6-2.3-4-7.7-2.5-11.6-2.2h0ZM261.3,435.9c.8.7,1.1,2.1,2.5,2.8,3.9,1.9,7.6-4.3,10.3-6.5-6.2-7.4-10.9-9.4-18.2-1.9-.4,1.8,4.1,4.5,5.4,5.6h0ZM242.1,494.4c-2.1-2.1-16.9-15-16.9-16.2l30.2-27.4v-2.9s-7.7-5.7-7.7-5.7l-35.8,36.9,52.1,56.1,55.2-57-37.8-35c-1.6,1.8-8.1,6.2-6.9,8.6l28.4,26.4.5,2.4-38.6,35.4c-1.6.2-20-19-22.7-21.6h0ZM265.2,462.5c-1.2.3-18,16.4-18,17.6l18.7,19.4,20.6-19.4-19.2-17.4c-.7-.5-1.4-.6-2.2-.4h0Z"/>
  </g>
</svg>